<svg viewBox="0 0 17 19" xmlns="http://www.w3.org/2000/svg">
    <path d="M5 6.11111H10V7.22223H5V6.11111Z" fill="currentColor"/>
    <path d="M5 8.33334H10V9.44445H5V8.33334Z" fill="currentColor"/>
    <path d="M5 10.5556H10V11.6667H5V10.5556Z" fill="currentColor"/>
    <path d="M5 12.7778H10V13.8889H5V12.7778Z" fill="currentColor"/>
    <path d="M2.77778 3.88892H3.88889V5.00003H2.77778V3.88892Z" fill="currentColor"/>
    <path d="M2.77778 6.11111H3.88889V7.22223H2.77778V6.11111Z" fill="currentColor"/>
    <path d="M2.77778 8.33334H3.88889V9.44445H2.77778V8.33334Z" fill="currentColor"/>
    <path d="M2.77778 10.5556H3.88889V11.6667H2.77778V10.5556Z" fill="currentColor"/>
    <path d="M2.77778 12.7778H3.88889V13.8889H2.77778V12.7778Z" fill="currentColor"/>
    <path d="M5 3.88892V5.00003H9.81111C9.59248 4.65602 9.42587 4.28161 9.31667 3.88892H5Z" fill="currentColor"/>
    <path d="M12.2222 6.78891V17.2222H1.11111V1.66668H9.32222C9.42969 1.2743 9.59442 0.899902 9.81111 0.555573H1.11111C0.816426 0.555573 0.533811 0.672636 0.325437 0.881009C0.117063 1.08938 0 1.372 0 1.66668V17.2222C0 17.5169 0.117063 17.7995 0.325437 18.0079C0.533811 18.2163 0.816426 18.3334 1.11111 18.3334H12.2222C12.5169 18.3334 12.7995 18.2163 13.0079 18.0079C13.2163 17.7995 13.3333 17.5169 13.3333 17.2222V6.94446C12.9576 6.94301 12.5839 6.89068 12.2222 6.78891V6.78891Z" fill="currentColor"/>
    <path d="M13.3333 5.55556C14.8675 5.55556 16.1111 4.3119 16.1111 2.77778C16.1111 1.24365 14.8675 0 13.3333 0C11.7992 0 10.5555 1.24365 10.5555 2.77778C10.5555 4.3119 11.7992 5.55556 13.3333 5.55556Z" fill="currentColor"/>
</svg>
